<?xml version="1.0" encoding="utf-8"?>
<!-- Generator: Adobe Illustrator 17.1.0, SVG Export Plug-In . SVG Version: 6.00 Build 0)  -->
<!DOCTYPE svg PUBLIC "-//W3C//DTD SVG 1.1//EN" "http://www.w3.org/Graphics/SVG/1.1/DTD/svg11.dtd">
<svg version="1.1" id="Layer_3" xmlns="http://www.w3.org/2000/svg" xmlns:xlink="http://www.w3.org/1999/xlink" x="0px" y="0px"
	 viewBox="69.8 213.6 472.5 364.1" enable-background="new 69.8 213.6 472.5 364.1" xml:space="preserve">
<path fill="#FFFFFF" d="M542.2,441.9c0,4.9-4.3,9.2-9.2,9.2h-265l45.3,114.4c1.2,3.7,0,8-3.1,10.4s-8,2.4-11,0L73.4,403.3
	c-2.4-1.8-3.7-4.3-3.7-7.3s1.2-5.5,3.7-7.3l225.2-173.2c1.8-1.2,3.7-1.8,5.5-1.8c1.8,0,3.7,0.6,5.5,1.8c3.1,2.4,4.3,6.7,3.1,10.4
	l-45.3,115.1h265c4.9,0,9.2,4.3,9.2,9.2L542.2,441.9z"/>
</svg>
