<?xml version="1.0" encoding="utf-8"?>
<!-- Generator: Adobe Illustrator 17.1.0, SVG Export Plug-In . SVG Version: 6.00 Build 0)  -->
<!DOCTYPE svg PUBLIC "-//W3C//DTD SVG 1.1//EN" "http://www.w3.org/Graphics/SVG/1.1/DTD/svg11.dtd">
<svg version="1.1" id="Layer_3" xmlns="http://www.w3.org/2000/svg" xmlns:xlink="http://www.w3.org/1999/xlink" x="0px" y="0px"
	 viewBox="69.7 373.9 612 471.5" enable-background="new 69.7 373.9 612 471.5" xml:space="preserve">
<path fill="#FFFFFF" d="M69.7,549.8c0-6.3,5.6-11.9,11.9-11.9h343.2l-58.7-148.2c-1.6-4.8,0-10.4,4-13.5s10.4-3.1,14.2,0
	l292.5,223.6c3.1,2.3,4.8,5.6,4.8,9.5c0,3.9-1.6,7.1-4.8,9.5L385.2,843.1c-2.3,1.6-4.8,2.3-7.1,2.3c-2.3,0-4.8-0.8-7.1-2.3
	c-4-3.1-5.6-8.7-4-13.5l58.7-149.1H82.4c-6.3,0-11.9-5.6-11.9-11.9L69.7,549.8z"/>
</svg>
